<mxfile host="app.diagrams.net" modified="2023-11-29T07:59:30.784Z" agent="Mozilla/5.0 (Windows NT 10.0; Win64; x64) AppleWebKit/537.36 (KHTML, like Gecko) Chrome/119.0.0.0 Safari/537.36 Edg/119.0.0.0" etag="XWbEZdIb6Q3dSoK3ChqH" version="22.1.4" type="github" pages="2">
  <diagram name="第 1 页" id="zkNjxj-7vgQrWTerMI57">
    <mxGraphModel dx="1386" dy="793" grid="1" gridSize="10" guides="1" tooltips="1" connect="1" arrows="1" fold="1" page="1" pageScale="1" pageWidth="827" pageHeight="1169" math="0" shadow="0">
      <root>
        <mxCell id="0" />
        <mxCell id="1" parent="0" />
        <mxCell id="u8HhoxKraR9D1wvQ_Hw4-2" value="&lt;p style=&quot;margin:0px;margin-top:4px;text-align:center;&quot;&gt;&lt;b&gt;Temporal Aspect&lt;/b&gt;&lt;/p&gt;" style="verticalAlign=top;align=left;overflow=fill;fontSize=12;fontFamily=Times New Roman;html=1;whiteSpace=wrap;shadow=0;rounded=1;fillColor=#d5e8d4;strokeColor=#82b366;strokeWidth=2;dashed=1;opacity=50;" parent="1" vertex="1">
          <mxGeometry x="380" y="100" width="190" height="70" as="geometry" />
        </mxCell>
        <mxCell id="u8HhoxKraR9D1wvQ_Hw4-1" value="&lt;p style=&quot;margin:0px;margin-top:4px;text-align:center;&quot;&gt;&lt;b&gt;Spatial Aspect&lt;/b&gt;&lt;/p&gt;" style="verticalAlign=top;align=left;overflow=fill;fontSize=12;fontFamily=Times New Roman;html=1;whiteSpace=wrap;shadow=0;rounded=1;fillColor=#dae8fc;strokeColor=#6c8ebf;strokeWidth=2;dashed=1;opacity=50;" parent="1" vertex="1">
          <mxGeometry x="30" y="100" width="340" height="70" as="geometry" />
        </mxCell>
        <mxCell id="XMkqf1rULxtsmKMtTNsO-2" value="Heat Map,&amp;nbsp;&lt;br&gt;Background Map" style="rounded=1;shadow=1;fontFamily=Times New Roman;align=center;labelBackgroundColor=none;labelBorderColor=none;whiteSpace=wrap;html=1;points=[[0,0,0,0,0],[0,0.3,0,0,0],[0,0.5,0,0,0],[0,0.85,0,0,0],[0,1,0,0,0],[0.25,0,0,0,0],[0.25,1,0,0,0],[0.5,0,0,0,0],[0.5,1,0,0,0],[0.75,0,0,0,0],[0.75,1,0,0,0],[1,0,0,0,0],[1,0.25,0,0,0],[1,0.5,0,0,0],[1,0.75,0,0,0],[1,1,0,0,0]];container=0;" parent="1" vertex="1">
          <mxGeometry x="40" y="120" width="120" height="40" as="geometry" />
        </mxCell>
        <mxCell id="XMkqf1rULxtsmKMtTNsO-3" value="Connection Map,&amp;nbsp;&lt;br&gt;Background Map" style="rounded=1;shadow=1;fontFamily=Times New Roman;align=center;labelBackgroundColor=none;labelBorderColor=none;whiteSpace=wrap;html=1;points=[[0,0,0,0,0],[0,0.3,0,0,0],[0,0.5,0,0,0],[0,0.85,0,0,0],[0,1,0,0,0],[0.25,0,0,0,0],[0.25,1,0,0,0],[0.5,0,0,0,0],[0.5,1,0,0,0],[0.75,0,0,0,0],[0.75,1,0,0,0],[1,0,0,0,0],[1,0.25,0,0,0],[1,0.5,0,0,0],[1,0.75,0,0,0],[1,1,0,0,0]];container=0;" parent="1" vertex="1">
          <mxGeometry x="240" y="120" width="120" height="40" as="geometry" />
        </mxCell>
        <mxCell id="XMkqf1rULxtsmKMtTNsO-4" value="Histogram&lt;br&gt;Density Plot" style="rounded=1;shadow=1;fontFamily=Times New Roman;align=center;labelBackgroundColor=none;labelBorderColor=none;whiteSpace=wrap;html=1;points=[[0,0,0,0,0],[0,0.3,0,0,0],[0,0.5,0,0,0],[0,0.85,0,0,0],[0,1,0,0,0],[0.25,0,0,0,0],[0.25,1,0,0,0],[0.5,0,0,0,0],[0.5,1,0,0,0],[0.75,0,0,0,0],[0.75,1,0,0,0],[1,0,0,0,0],[1,0.25,0,0,0],[1,0.5,0,0,0],[1,0.75,0,0,0],[1,1,0,0,0]];container=0;" parent="1" vertex="1">
          <mxGeometry x="440" y="120" width="120" height="40" as="geometry" />
        </mxCell>
        <mxCell id="-I8aVZD_lmO5MlXThIHt-1" value="Space&lt;br&gt;Selection" style="endArrow=classic;html=1;rounded=0;exitX=1;exitY=0.5;exitDx=0;exitDy=0;exitPerimeter=0;entryX=0;entryY=0.5;entryDx=0;entryDy=0;entryPerimeter=0;labelBackgroundColor=#ecf3fd;fontFamily=Times New Roman;" parent="1" source="XMkqf1rULxtsmKMtTNsO-2" target="XMkqf1rULxtsmKMtTNsO-3" edge="1">
          <mxGeometry width="50" height="50" relative="1" as="geometry">
            <mxPoint x="270" y="280" as="sourcePoint" />
            <mxPoint x="320" y="230" as="targetPoint" />
            <mxPoint as="offset" />
          </mxGeometry>
        </mxCell>
        <mxCell id="-I8aVZD_lmO5MlXThIHt-3" value="Time&lt;br&gt;Selection" style="endArrow=classic;html=1;rounded=0;exitX=1;exitY=0.5;exitDx=0;exitDy=0;exitPerimeter=0;labelBackgroundColor=#eaf3e9;fontFamily=Times New Roman;" parent="1" source="XMkqf1rULxtsmKMtTNsO-3" target="XMkqf1rULxtsmKMtTNsO-4" edge="1">
          <mxGeometry width="50" height="50" relative="1" as="geometry">
            <mxPoint x="374" y="90" as="sourcePoint" />
            <mxPoint x="454" y="90" as="targetPoint" />
          </mxGeometry>
        </mxCell>
        <mxCell id="u8HhoxKraR9D1wvQ_Hw4-4" value="&lt;font face=&quot;Times New Roman&quot;&gt;Showing the overview (count) distribution of of the getting on and off behaviours&amp;nbsp;&lt;/font&gt;" style="text;html=1;strokeColor=none;fillColor=none;align=center;verticalAlign=middle;whiteSpace=wrap;rounded=0;" parent="1" vertex="1">
          <mxGeometry x="40" y="40" width="200" height="40" as="geometry" />
        </mxCell>
        <mxCell id="u8HhoxKraR9D1wvQ_Hw4-5" value="&lt;font face=&quot;Times New Roman&quot;&gt;Showing the directed or indirected&amp;nbsp; connections related to selected refined areas&lt;/font&gt;" style="text;html=1;strokeColor=none;fillColor=none;align=center;verticalAlign=middle;whiteSpace=wrap;rounded=0;" parent="1" vertex="1">
          <mxGeometry x="160" y="190" width="200" height="40" as="geometry" />
        </mxCell>
        <mxCell id="u8HhoxKraR9D1wvQ_Hw4-6" value="&lt;font face=&quot;Times New Roman&quot;&gt;Showing the (count) distribution of the numbers of trip or passengers during a certain time interval in selected areas&amp;nbsp;&lt;/font&gt;" style="text;html=1;strokeColor=none;fillColor=none;align=center;verticalAlign=middle;whiteSpace=wrap;rounded=0;" parent="1" vertex="1">
          <mxGeometry x="360" y="40" width="200" height="40" as="geometry" />
        </mxCell>
        <mxCell id="u8HhoxKraR9D1wvQ_Hw4-7" value="" style="endArrow=classic;html=1;rounded=0;edgeStyle=orthogonalEdgeStyle;curved=1;dashed=1;" parent="1" source="XMkqf1rULxtsmKMtTNsO-2" target="u8HhoxKraR9D1wvQ_Hw4-4" edge="1">
          <mxGeometry width="50" height="50" relative="1" as="geometry">
            <mxPoint x="120" y="300" as="sourcePoint" />
            <mxPoint x="170" y="250" as="targetPoint" />
          </mxGeometry>
        </mxCell>
        <mxCell id="u8HhoxKraR9D1wvQ_Hw4-8" value="" style="endArrow=classic;html=1;rounded=0;edgeStyle=orthogonalEdgeStyle;curved=1;dashed=1;" parent="1" source="XMkqf1rULxtsmKMtTNsO-3" target="u8HhoxKraR9D1wvQ_Hw4-5" edge="1">
          <mxGeometry width="50" height="50" relative="1" as="geometry">
            <mxPoint x="110" y="130" as="sourcePoint" />
            <mxPoint x="150" y="90" as="targetPoint" />
          </mxGeometry>
        </mxCell>
        <mxCell id="u8HhoxKraR9D1wvQ_Hw4-9" value="" style="endArrow=classic;html=1;rounded=0;edgeStyle=orthogonalEdgeStyle;curved=1;dashed=1;" parent="1" source="XMkqf1rULxtsmKMtTNsO-4" target="u8HhoxKraR9D1wvQ_Hw4-6" edge="1">
          <mxGeometry width="50" height="50" relative="1" as="geometry">
            <mxPoint x="310" y="170" as="sourcePoint" />
            <mxPoint x="270" y="200" as="targetPoint" />
          </mxGeometry>
        </mxCell>
        <mxCell id="RHir4wSRkqeCRTTtprYb-21" value="&lt;p style=&quot;margin:0px;margin-top:4px;text-align:center;&quot;&gt;&lt;b&gt;Visualization Parts&lt;/b&gt;&lt;/p&gt;" style="verticalAlign=top;align=left;overflow=fill;fontSize=12;fontFamily=Times New Roman;html=1;whiteSpace=wrap;shadow=0;rounded=1;fillColor=#dae8fc;strokeColor=#6c8ebf;strokeWidth=2;dashed=1;opacity=50;" parent="1" vertex="1">
          <mxGeometry x="30" y="340" width="340" height="180" as="geometry" />
        </mxCell>
        <mxCell id="RHir4wSRkqeCRTTtprYb-22" value="&lt;p style=&quot;margin:0px;margin-top:4px;text-align:center;&quot;&gt;&lt;b&gt;Interaction Parts&lt;/b&gt;&lt;/p&gt;" style="verticalAlign=top;align=left;overflow=fill;fontSize=12;fontFamily=Times New Roman;html=1;whiteSpace=wrap;shadow=0;rounded=1;fillColor=#d5e8d4;strokeColor=#82b366;strokeWidth=2;dashed=1;opacity=50;" parent="1" vertex="1">
          <mxGeometry x="385" y="340" width="190" height="120" as="geometry" />
        </mxCell>
        <mxCell id="RHir4wSRkqeCRTTtprYb-23" value="&lt;p style=&quot;margin:0px;margin-top:4px;text-align:center;&quot;&gt;&lt;b&gt;Other Parts&lt;/b&gt;&lt;/p&gt;" style="verticalAlign=top;align=left;overflow=fill;fontSize=12;fontFamily=Times New Roman;html=1;whiteSpace=wrap;shadow=0;rounded=1;fillColor=#ffe6cc;strokeColor=#d79b00;strokeWidth=2;dashed=1;opacity=50;" parent="1" vertex="1">
          <mxGeometry x="385" y="470" width="190" height="50" as="geometry" />
        </mxCell>
        <mxCell id="RHir4wSRkqeCRTTtprYb-28" value="&lt;p style=&quot;margin:0px;margin-top:4px;text-align:center;&quot;&gt;&lt;b&gt;Heat Map&lt;/b&gt;&lt;/p&gt;" style="verticalAlign=top;align=left;overflow=fill;fontSize=12;fontFamily=Times New Roman;html=1;whiteSpace=wrap;shadow=1;rounded=1;strokeColor=default;fillColor=#FFFFFF;" parent="1" vertex="1">
          <mxGeometry x="50" y="370" width="140" height="90" as="geometry" />
        </mxCell>
        <mxCell id="RHir4wSRkqeCRTTtprYb-29" value="Region Selection" style="rounded=1;whiteSpace=wrap;html=1;shadow=1;fontFamily=Times New Roman;" parent="1" vertex="1">
          <mxGeometry x="70" y="400" width="100" height="40" as="geometry" />
        </mxCell>
        <mxCell id="RHir4wSRkqeCRTTtprYb-32" value="&lt;p style=&quot;margin:0px;margin-top:4px;text-align:center;&quot;&gt;&lt;b&gt;Connection Map&lt;/b&gt;&lt;/p&gt;" style="verticalAlign=top;align=left;overflow=fill;fontSize=12;fontFamily=Times New Roman;html=1;whiteSpace=wrap;shadow=1;rounded=1;strokeColor=default;fillColor=#FFFFFF;" parent="1" vertex="1">
          <mxGeometry x="210" y="370" width="140" height="90" as="geometry" />
        </mxCell>
        <mxCell id="RHir4wSRkqeCRTTtprYb-33" value="Direction Selection" style="rounded=1;whiteSpace=wrap;html=1;shadow=1;fontFamily=Times New Roman;" parent="1" vertex="1">
          <mxGeometry x="230" y="400" width="100" height="40" as="geometry" />
        </mxCell>
        <mxCell id="RHir4wSRkqeCRTTtprYb-41" value="Histogram&lt;br style=&quot;border-color: var(--border-color);&quot;&gt;&lt;span style=&quot;&quot;&gt;Density Plot&lt;/span&gt;" style="rounded=1;shadow=1;fontFamily=Times New Roman;align=center;labelBackgroundColor=none;labelBorderColor=none;whiteSpace=wrap;html=1;points=[[0,0,0,0,0],[0,0.3,0,0,0],[0,0.5,0,0,0],[0,0.85,0,0,0],[0,1,0,0,0],[0.25,0,0,0,0],[0.25,1,0,0,0],[0.5,0,0,0,0],[0.5,1,0,0,0],[0.75,0,0,0,0],[0.75,1,0,0,0],[1,0,0,0,0],[1,0.25,0,0,0],[1,0.5,0,0,0],[1,0.75,0,0,0],[1,1,0,0,0]];container=0;fontStyle=1" parent="1" vertex="1">
          <mxGeometry x="50" y="470" width="60" height="40" as="geometry" />
        </mxCell>
        <mxCell id="RHir4wSRkqeCRTTtprYb-42" value="Histogram&lt;br style=&quot;border-color: var(--border-color);&quot;&gt;Density Plot" style="rounded=1;shadow=1;fontFamily=Times New Roman;align=center;labelBackgroundColor=none;labelBorderColor=none;whiteSpace=wrap;html=1;points=[[0,0,0,0,0],[0,0.3,0,0,0],[0,0.5,0,0,0],[0,0.85,0,0,0],[0,1,0,0,0],[0.25,0,0,0,0],[0.25,1,0,0,0],[0.5,0,0,0,0],[0.5,1,0,0,0],[0.75,0,0,0,0],[0.75,1,0,0,0],[1,0,0,0,0],[1,0.25,0,0,0],[1,0.5,0,0,0],[1,0.75,0,0,0],[1,1,0,0,0]];container=0;fontStyle=1" parent="1" vertex="1">
          <mxGeometry x="130" y="470" width="60" height="40" as="geometry" />
        </mxCell>
        <mxCell id="RHir4wSRkqeCRTTtprYb-43" value="Histogram&lt;br style=&quot;border-color: var(--border-color);&quot;&gt;Density Plot" style="rounded=1;shadow=1;fontFamily=Times New Roman;align=center;labelBackgroundColor=none;labelBorderColor=none;whiteSpace=wrap;html=1;points=[[0,0,0,0,0],[0,0.3,0,0,0],[0,0.5,0,0,0],[0,0.85,0,0,0],[0,1,0,0,0],[0.25,0,0,0,0],[0.25,1,0,0,0],[0.5,0,0,0,0],[0.5,1,0,0,0],[0.75,0,0,0,0],[0.75,1,0,0,0],[1,0,0,0,0],[1,0.25,0,0,0],[1,0.5,0,0,0],[1,0.75,0,0,0],[1,1,0,0,0]];container=0;fontStyle=1" parent="1" vertex="1">
          <mxGeometry x="210" y="470" width="60" height="40" as="geometry" />
        </mxCell>
        <mxCell id="RHir4wSRkqeCRTTtprYb-44" value="Histogram&lt;br style=&quot;border-color: var(--border-color);&quot;&gt;Density Plot" style="rounded=1;shadow=1;fontFamily=Times New Roman;align=center;labelBackgroundColor=none;labelBorderColor=none;whiteSpace=wrap;html=1;points=[[0,0,0,0,0],[0,0.3,0,0,0],[0,0.5,0,0,0],[0,0.85,0,0,0],[0,1,0,0,0],[0.25,0,0,0,0],[0.25,1,0,0,0],[0.5,0,0,0,0],[0.5,1,0,0,0],[0.75,0,0,0,0],[0.75,1,0,0,0],[1,0,0,0,0],[1,0.25,0,0,0],[1,0.5,0,0,0],[1,0.75,0,0,0],[1,1,0,0,0]];container=0;fontStyle=1" parent="1" vertex="1">
          <mxGeometry x="290" y="470" width="60" height="40" as="geometry" />
        </mxCell>
        <mxCell id="RHir4wSRkqeCRTTtprYb-45" value="Time Range Selection" style="rounded=1;whiteSpace=wrap;html=1;shadow=1;fontFamily=Times New Roman;" parent="1" vertex="1">
          <mxGeometry x="420" y="370" width="120" height="20" as="geometry" />
        </mxCell>
        <mxCell id="RHir4wSRkqeCRTTtprYb-46" value="Scale Selection" style="rounded=1;whiteSpace=wrap;html=1;shadow=1;fontFamily=Times New Roman;" parent="1" vertex="1">
          <mxGeometry x="420" y="400" width="120" height="20" as="geometry" />
        </mxCell>
        <mxCell id="RHir4wSRkqeCRTTtprYb-47" value="Instructions&amp;nbsp;etc." style="rounded=1;whiteSpace=wrap;html=1;shadow=1;fontFamily=Times New Roman;" parent="1" vertex="1">
          <mxGeometry x="420" y="490" width="120" height="20" as="geometry" />
        </mxCell>
        <mxCell id="RHir4wSRkqeCRTTtprYb-52" value="&lt;font&gt;Those modules (including lasso tools, selection lists and bottons) are used for user interaction&lt;/font&gt;" style="text;html=1;strokeColor=none;fillColor=none;align=center;verticalAlign=middle;whiteSpace=wrap;rounded=0;fontFamily=Times New Roman;" parent="1" vertex="1">
          <mxGeometry x="130" y="280" width="300" height="40" as="geometry" />
        </mxCell>
        <mxCell id="RHir4wSRkqeCRTTtprYb-53" value="" style="endArrow=classic;html=1;rounded=0;edgeStyle=orthogonalEdgeStyle;curved=1;entryX=0.5;entryY=1;entryDx=0;entryDy=0;fontFamily=Times New Roman;dashed=1;" parent="1" source="RHir4wSRkqeCRTTtprYb-29" target="RHir4wSRkqeCRTTtprYb-52" edge="1">
          <mxGeometry width="50" height="50" relative="1" as="geometry">
            <mxPoint x="310" y="230" as="sourcePoint" />
            <mxPoint x="270" y="260" as="targetPoint" />
          </mxGeometry>
        </mxCell>
        <mxCell id="RHir4wSRkqeCRTTtprYb-54" value="" style="endArrow=classic;html=1;rounded=0;edgeStyle=orthogonalEdgeStyle;curved=1;fontFamily=Times New Roman;dashed=1;" parent="1" source="RHir4wSRkqeCRTTtprYb-33" target="RHir4wSRkqeCRTTtprYb-52" edge="1">
          <mxGeometry width="50" height="50" relative="1" as="geometry">
            <mxPoint x="130" y="410" as="sourcePoint" />
            <mxPoint x="385" y="310" as="targetPoint" />
            <Array as="points" />
          </mxGeometry>
        </mxCell>
        <mxCell id="RHir4wSRkqeCRTTtprYb-55" value="" style="endArrow=classic;html=1;rounded=0;edgeStyle=orthogonalEdgeStyle;curved=1;fontFamily=Times New Roman;entryX=1;entryY=0.5;entryDx=0;entryDy=0;dashed=1;" parent="1" source="RHir4wSRkqeCRTTtprYb-45" target="RHir4wSRkqeCRTTtprYb-52" edge="1">
          <mxGeometry width="50" height="50" relative="1" as="geometry">
            <mxPoint x="310" y="410" as="sourcePoint" />
            <mxPoint x="385" y="320" as="targetPoint" />
          </mxGeometry>
        </mxCell>
        <mxCell id="RHir4wSRkqeCRTTtprYb-56" value="" style="endArrow=classic;html=1;rounded=0;edgeStyle=orthogonalEdgeStyle;curved=1;exitX=0;exitY=0.5;exitDx=0;exitDy=0;fontFamily=Times New Roman;entryX=0.75;entryY=1;entryDx=0;entryDy=0;dashed=1;" parent="1" source="RHir4wSRkqeCRTTtprYb-46" target="RHir4wSRkqeCRTTtprYb-52" edge="1">
          <mxGeometry width="50" height="50" relative="1" as="geometry">
            <mxPoint x="540" y="395" as="sourcePoint" />
            <mxPoint x="585" y="310" as="targetPoint" />
          </mxGeometry>
        </mxCell>
        <mxCell id="RHir4wSRkqeCRTTtprYb-57" value="While heat map always expresses the entire overview data, the other visualizations remain consistent within the constraints (they are useing the same subsets of data)." style="text;whiteSpace=wrap;fontFamily=Times New Roman;align=center;verticalAlign=middle;" parent="1" vertex="1">
          <mxGeometry x="130" y="540" width="300" height="40" as="geometry" />
        </mxCell>
        <mxCell id="RHir4wSRkqeCRTTtprYb-58" value="" style="endArrow=classic;html=1;rounded=0;edgeStyle=orthogonalEdgeStyle;curved=1;fontFamily=Times New Roman;exitX=0.5;exitY=1;exitDx=0;exitDy=0;dashed=1;" parent="1" source="RHir4wSRkqeCRTTtprYb-32" target="RHir4wSRkqeCRTTtprYb-57" edge="1">
          <mxGeometry width="50" height="50" relative="1" as="geometry">
            <mxPoint x="290" y="410" as="sourcePoint" />
            <mxPoint x="290" y="330" as="targetPoint" />
            <Array as="points" />
          </mxGeometry>
        </mxCell>
        <mxCell id="RHir4wSRkqeCRTTtprYb-59" value="" style="endArrow=classic;html=1;rounded=0;edgeStyle=orthogonalEdgeStyle;curved=1;fontFamily=Times New Roman;entryX=0.5;entryY=0;entryDx=0;entryDy=0;dashed=1;" parent="1" source="RHir4wSRkqeCRTTtprYb-44" target="RHir4wSRkqeCRTTtprYb-57" edge="1">
          <mxGeometry width="50" height="50" relative="1" as="geometry">
            <mxPoint x="290" y="470" as="sourcePoint" />
            <mxPoint x="290" y="550" as="targetPoint" />
            <Array as="points" />
          </mxGeometry>
        </mxCell>
        <mxCell id="RHir4wSRkqeCRTTtprYb-60" value="" style="endArrow=classic;html=1;rounded=0;edgeStyle=orthogonalEdgeStyle;curved=1;fontFamily=Times New Roman;entryX=0.5;entryY=0;entryDx=0;entryDy=0;exitX=0.5;exitY=1;exitDx=0;exitDy=0;exitPerimeter=0;dashed=1;" parent="1" source="RHir4wSRkqeCRTTtprYb-43" target="RHir4wSRkqeCRTTtprYb-57" edge="1">
          <mxGeometry width="50" height="50" relative="1" as="geometry">
            <mxPoint x="330" y="520" as="sourcePoint" />
            <mxPoint x="290" y="550" as="targetPoint" />
            <Array as="points" />
          </mxGeometry>
        </mxCell>
        <mxCell id="RHir4wSRkqeCRTTtprYb-61" value="" style="endArrow=classic;html=1;rounded=0;edgeStyle=orthogonalEdgeStyle;curved=1;fontFamily=Times New Roman;entryX=0.25;entryY=0;entryDx=0;entryDy=0;exitX=0.5;exitY=1;exitDx=0;exitDy=0;exitPerimeter=0;dashed=1;" parent="1" source="RHir4wSRkqeCRTTtprYb-42" target="RHir4wSRkqeCRTTtprYb-57" edge="1">
          <mxGeometry width="50" height="50" relative="1" as="geometry">
            <mxPoint x="250" y="520" as="sourcePoint" />
            <mxPoint x="290" y="550" as="targetPoint" />
            <Array as="points" />
          </mxGeometry>
        </mxCell>
        <mxCell id="RHir4wSRkqeCRTTtprYb-62" value="" style="endArrow=classic;html=1;rounded=0;edgeStyle=orthogonalEdgeStyle;curved=1;fontFamily=Times New Roman;entryX=0;entryY=0.5;entryDx=0;entryDy=0;exitX=0.5;exitY=1;exitDx=0;exitDy=0;exitPerimeter=0;dashed=1;" parent="1" source="RHir4wSRkqeCRTTtprYb-41" target="RHir4wSRkqeCRTTtprYb-57" edge="1">
          <mxGeometry width="50" height="50" relative="1" as="geometry">
            <mxPoint x="170" y="520" as="sourcePoint" />
            <mxPoint x="290" y="550" as="targetPoint" />
            <Array as="points" />
          </mxGeometry>
        </mxCell>
        <mxCell id="BncdsBSXApDKjUixTZTs-1" value="Direction Selection" style="rounded=1;whiteSpace=wrap;html=1;shadow=1;fontFamily=Times New Roman;" vertex="1" parent="1">
          <mxGeometry x="420" y="430" width="120" height="20" as="geometry" />
        </mxCell>
        <mxCell id="BncdsBSXApDKjUixTZTs-2" value="" style="endArrow=classic;html=1;rounded=0;edgeStyle=orthogonalEdgeStyle;curved=1;exitX=0;exitY=0.5;exitDx=0;exitDy=0;fontFamily=Times New Roman;entryX=0.75;entryY=1;entryDx=0;entryDy=0;dashed=1;" edge="1" parent="1" source="BncdsBSXApDKjUixTZTs-1" target="RHir4wSRkqeCRTTtprYb-52">
          <mxGeometry width="50" height="50" relative="1" as="geometry">
            <mxPoint x="430" y="420" as="sourcePoint" />
            <mxPoint x="365" y="330" as="targetPoint" />
          </mxGeometry>
        </mxCell>
      </root>
    </mxGraphModel>
  </diagram>
  <diagram id="sDDnknOMSt57MWQHZbTM" name="Page-2">
    <mxGraphModel dx="1386" dy="793" grid="1" gridSize="10" guides="1" tooltips="1" connect="1" arrows="1" fold="1" page="1" pageScale="1" pageWidth="850" pageHeight="1100" math="0" shadow="0">
      <root>
        <mxCell id="0" />
        <mxCell id="1" parent="0" />
        <mxCell id="-lynASmVxEoVOLexTmck-1" value="&lt;p style=&quot;margin:0px;margin-top:4px;text-align:center;&quot;&gt;&lt;b&gt;Connection Properties&lt;/b&gt;&lt;/p&gt;" style="verticalAlign=top;align=left;overflow=fill;fontSize=12;fontFamily=Times New Roman;html=1;whiteSpace=wrap;shadow=0;rounded=1;fillColor=#ffe6cc;strokeColor=#d79b00;strokeWidth=2;dashed=1;opacity=50;" vertex="1" parent="1">
          <mxGeometry x="580" y="260" width="120" height="140" as="geometry" />
        </mxCell>
        <mxCell id="uibHqKtkNB9VnTDQrDVG-2" value="&lt;p style=&quot;margin:0px;margin-top:4px;text-align:center;&quot;&gt;&lt;b&gt;Spatial Properties&lt;/b&gt;&lt;/p&gt;" style="verticalAlign=top;align=left;overflow=fill;fontSize=12;fontFamily=Times New Roman;html=1;whiteSpace=wrap;shadow=0;rounded=1;fillColor=#d5e8d4;strokeColor=#82b366;strokeWidth=2;dashed=1;opacity=50;" vertex="1" parent="1">
          <mxGeometry x="400" y="260" width="120" height="140" as="geometry" />
        </mxCell>
        <mxCell id="uibHqKtkNB9VnTDQrDVG-3" value="&lt;p style=&quot;margin:0px;margin-top:4px;text-align:center;&quot;&gt;&lt;b&gt;Temporal Properties&lt;/b&gt;&lt;/p&gt;" style="verticalAlign=top;align=left;overflow=fill;fontSize=12;fontFamily=Times New Roman;html=1;whiteSpace=wrap;shadow=0;rounded=1;fillColor=#dae8fc;strokeColor=#6c8ebf;strokeWidth=2;dashed=1;opacity=50;" vertex="1" parent="1">
          <mxGeometry x="225" y="260" width="110" height="140" as="geometry" />
        </mxCell>
        <mxCell id="uibHqKtkNB9VnTDQrDVG-4" value="Trip by Coord" style="rounded=1;shadow=1;fontFamily=Times New Roman;align=center;labelBackgroundColor=none;labelBorderColor=none;whiteSpace=wrap;html=1;points=[[0,0,0,0,0],[0,0.3,0,0,0],[0,0.5,0,0,0],[0,0.85,0,0,0],[0,1,0,0,0],[0.25,0,0,0,0],[0.25,1,0,0,0],[0.5,0,0,0,0],[0.5,1,0,0,0],[0.75,0,0,0,0],[0.75,1,0,0,0],[1,0,0,0,0],[1,0.25,0,0,0],[1,0.5,0,0,0],[1,0.75,0,0,0],[1,1,0,0,0]];container=0;" vertex="1" parent="1">
          <mxGeometry x="50" y="280" width="100" height="40" as="geometry" />
        </mxCell>
        <mxCell id="uibHqKtkNB9VnTDQrDVG-5" value="Trip by Coord&lt;br&gt;(Filtered by Time)" style="rounded=1;shadow=1;fontFamily=Times New Roman;align=center;labelBackgroundColor=none;labelBorderColor=none;whiteSpace=wrap;html=1;points=[[0,0,0,0,0],[0,0.3,0,0,0],[0,0.5,0,0,0],[0,0.85,0,0,0],[0,1,0,0,0],[0.25,0,0,0,0],[0.25,1,0,0,0],[0.5,0,0,0,0],[0.5,1,0,0,0],[0.75,0,0,0,0],[0.75,1,0,0,0],[1,0,0,0,0],[1,0.25,0,0,0],[1,0.5,0,0,0],[1,0.75,0,0,0],[1,1,0,0,0]];container=0;" vertex="1" parent="1">
          <mxGeometry x="230" y="280" width="100" height="40" as="geometry" />
        </mxCell>
        <mxCell id="uibHqKtkNB9VnTDQrDVG-6" value="Trip by Grid" style="rounded=1;shadow=1;fontFamily=Times New Roman;align=center;labelBackgroundColor=none;labelBorderColor=none;whiteSpace=wrap;html=1;points=[[0,0,0,0,0],[0,0.3,0,0,0],[0,0.5,0,0,0],[0,0.85,0,0,0],[0,1,0,0,0],[0.25,0,0,0,0],[0.25,1,0,0,0],[0.5,0,0,0,0],[0.5,1,0,0,0],[0.75,0,0,0,0],[0.75,1,0,0,0],[1,0,0,0,0],[1,0.25,0,0,0],[1,0.5,0,0,0],[1,0.75,0,0,0],[1,1,0,0,0]];container=0;" vertex="1" parent="1">
          <mxGeometry x="410" y="280" width="100" height="40" as="geometry" />
        </mxCell>
        <mxCell id="uibHqKtkNB9VnTDQrDVG-7" value="Time Range&lt;br&gt;Selection" style="endArrow=classic;html=1;rounded=0;exitX=1;exitY=0.5;exitDx=0;exitDy=0;exitPerimeter=0;entryX=0;entryY=0.5;entryDx=0;entryDy=0;entryPerimeter=0;labelBackgroundColor=none;fontFamily=Times New Roman;" edge="1" parent="1" source="uibHqKtkNB9VnTDQrDVG-4" target="uibHqKtkNB9VnTDQrDVG-5">
          <mxGeometry width="50" height="50" relative="1" as="geometry">
            <mxPoint x="270" y="280" as="sourcePoint" />
            <mxPoint x="320" y="230" as="targetPoint" />
            <mxPoint as="offset" />
          </mxGeometry>
        </mxCell>
        <mxCell id="uibHqKtkNB9VnTDQrDVG-8" value="Scale&amp;amp;Direction&lt;br&gt;Selection" style="endArrow=classic;html=1;rounded=0;exitX=1;exitY=0.5;exitDx=0;exitDy=0;exitPerimeter=0;labelBackgroundColor=none;fontFamily=Times New Roman;" edge="1" parent="1" source="uibHqKtkNB9VnTDQrDVG-5" target="uibHqKtkNB9VnTDQrDVG-6">
          <mxGeometry width="50" height="50" relative="1" as="geometry">
            <mxPoint x="374" y="90" as="sourcePoint" />
            <mxPoint x="454" y="90" as="targetPoint" />
          </mxGeometry>
        </mxCell>
        <mxCell id="uibHqKtkNB9VnTDQrDVG-9" value="&lt;font face=&quot;Times New Roman&quot;&gt;Showing the overview (count) distribution of of the getting on and off behaviours&amp;nbsp;&lt;/font&gt;" style="text;html=1;strokeColor=none;fillColor=none;align=center;verticalAlign=middle;whiteSpace=wrap;rounded=0;" vertex="1" parent="1">
          <mxGeometry x="40" y="40" width="200" height="40" as="geometry" />
        </mxCell>
        <mxCell id="uibHqKtkNB9VnTDQrDVG-10" value="&lt;font face=&quot;Times New Roman&quot;&gt;Showing the directed or indirected&amp;nbsp; connections related to selected refined areas&lt;/font&gt;" style="text;html=1;strokeColor=none;fillColor=none;align=center;verticalAlign=middle;whiteSpace=wrap;rounded=0;" vertex="1" parent="1">
          <mxGeometry x="160" y="190" width="200" height="40" as="geometry" />
        </mxCell>
        <mxCell id="uibHqKtkNB9VnTDQrDVG-11" value="&lt;font face=&quot;Times New Roman&quot;&gt;Showing the (count) distribution of the numbers of trip or passengers during a certain time interval in selected areas&amp;nbsp;&lt;/font&gt;" style="text;html=1;strokeColor=none;fillColor=none;align=center;verticalAlign=middle;whiteSpace=wrap;rounded=0;" vertex="1" parent="1">
          <mxGeometry x="360" y="40" width="200" height="40" as="geometry" />
        </mxCell>
        <mxCell id="uibHqKtkNB9VnTDQrDVG-12" value="" style="endArrow=classic;html=1;rounded=0;edgeStyle=orthogonalEdgeStyle;curved=1;dashed=1;" edge="1" parent="1" source="uibHqKtkNB9VnTDQrDVG-4" target="uibHqKtkNB9VnTDQrDVG-9">
          <mxGeometry width="50" height="50" relative="1" as="geometry">
            <mxPoint x="120" y="300" as="sourcePoint" />
            <mxPoint x="170" y="250" as="targetPoint" />
          </mxGeometry>
        </mxCell>
        <mxCell id="uibHqKtkNB9VnTDQrDVG-13" value="" style="endArrow=classic;html=1;rounded=0;edgeStyle=orthogonalEdgeStyle;curved=1;dashed=1;" edge="1" parent="1" source="uibHqKtkNB9VnTDQrDVG-5" target="uibHqKtkNB9VnTDQrDVG-10">
          <mxGeometry width="50" height="50" relative="1" as="geometry">
            <mxPoint x="110" y="130" as="sourcePoint" />
            <mxPoint x="150" y="90" as="targetPoint" />
          </mxGeometry>
        </mxCell>
        <mxCell id="uibHqKtkNB9VnTDQrDVG-14" value="" style="endArrow=classic;html=1;rounded=0;edgeStyle=orthogonalEdgeStyle;curved=1;dashed=1;" edge="1" parent="1" source="uibHqKtkNB9VnTDQrDVG-6" target="uibHqKtkNB9VnTDQrDVG-11">
          <mxGeometry width="50" height="50" relative="1" as="geometry">
            <mxPoint x="310" y="170" as="sourcePoint" />
            <mxPoint x="270" y="200" as="targetPoint" />
          </mxGeometry>
        </mxCell>
        <mxCell id="uibHqKtkNB9VnTDQrDVG-18" value="Trip by Grid&lt;br style=&quot;border-color: var(--border-color);&quot;&gt;(Filtered by Space)" style="rounded=1;shadow=1;fontFamily=Times New Roman;align=center;labelBackgroundColor=none;labelBorderColor=none;whiteSpace=wrap;html=1;points=[[0,0,0,0,0],[0,0.3,0,0,0],[0,0.5,0,0,0],[0,0.85,0,0,0],[0,1,0,0,0],[0.25,0,0,0,0],[0.25,1,0,0,0],[0.5,0,0,0,0],[0.5,1,0,0,0],[0.75,0,0,0,0],[0.75,1,0,0,0],[1,0,0,0,0],[1,0.25,0,0,0],[1,0.5,0,0,0],[1,0.75,0,0,0],[1,1,0,0,0]];container=0;" vertex="1" parent="1">
          <mxGeometry x="590" y="280" width="100" height="40" as="geometry" />
        </mxCell>
        <mxCell id="uibHqKtkNB9VnTDQrDVG-19" value="Space Range&lt;br&gt;Selection" style="endArrow=classic;html=1;rounded=0;labelBackgroundColor=none;fontFamily=Times New Roman;" edge="1" parent="1" source="uibHqKtkNB9VnTDQrDVG-6" target="uibHqKtkNB9VnTDQrDVG-18">
          <mxGeometry width="50" height="50" relative="1" as="geometry">
            <mxPoint x="419" y="335" as="sourcePoint" />
            <mxPoint x="491" y="335" as="targetPoint" />
          </mxGeometry>
        </mxCell>
        <mxCell id="O8uKvjE5hNxJf-8HaGL2-1" value="Histogram&lt;br&gt;Density Plot" style="rounded=1;shadow=1;fontFamily=Times New Roman;align=center;labelBackgroundColor=none;labelBorderColor=none;whiteSpace=wrap;html=1;points=[[0,0,0,0,0],[0,0.3,0,0,0],[0,0.5,0,0,0],[0,0.85,0,0,0],[0,1,0,0,0],[0.25,0,0,0,0],[0.25,1,0,0,0],[0.5,0,0,0,0],[0.5,1,0,0,0],[0.75,0,0,0,0],[0.75,1,0,0,0],[1,0,0,0,0],[1,0.25,0,0,0],[1,0.5,0,0,0],[1,0.75,0,0,0],[1,1,0,0,0]];container=0;" vertex="1" parent="1">
          <mxGeometry x="230" y="350" width="100" height="40" as="geometry" />
        </mxCell>
        <mxCell id="O8uKvjE5hNxJf-8HaGL2-3" value="" style="endArrow=classic;html=1;rounded=0;exitX=0.5;exitY=1;exitDx=0;exitDy=0;exitPerimeter=0;labelBackgroundColor=#eaf3e9;fontFamily=Times New Roman;" edge="1" parent="1" source="uibHqKtkNB9VnTDQrDVG-5" target="O8uKvjE5hNxJf-8HaGL2-1">
          <mxGeometry width="50" height="50" relative="1" as="geometry">
            <mxPoint x="269" y="335" as="sourcePoint" />
            <mxPoint x="340" y="335" as="targetPoint" />
          </mxGeometry>
        </mxCell>
        <mxCell id="O8uKvjE5hNxJf-8HaGL2-6" value="Heat Map,&amp;nbsp;&lt;br style=&quot;border-color: var(--border-color);&quot;&gt;Background Map" style="rounded=1;shadow=1;fontFamily=Times New Roman;align=center;labelBackgroundColor=none;labelBorderColor=none;whiteSpace=wrap;html=1;points=[[0,0,0,0,0],[0,0.3,0,0,0],[0,0.5,0,0,0],[0,0.85,0,0,0],[0,1,0,0,0],[0.25,0,0,0,0],[0.25,1,0,0,0],[0.5,0,0,0,0],[0.5,1,0,0,0],[0.75,0,0,0,0],[0.75,1,0,0,0],[1,0,0,0,0],[1,0.25,0,0,0],[1,0.5,0,0,0],[1,0.75,0,0,0],[1,1,0,0,0]];container=0;" vertex="1" parent="1">
          <mxGeometry x="410" y="350" width="100" height="40" as="geometry" />
        </mxCell>
        <mxCell id="L2oNHf1VwfuHhcc7JdmU-1" value="Connection Map,&amp;nbsp;&lt;br&gt;Background Map" style="rounded=1;shadow=1;fontFamily=Times New Roman;align=center;labelBackgroundColor=none;labelBorderColor=none;whiteSpace=wrap;html=1;points=[[0,0,0,0,0],[0,0.3,0,0,0],[0,0.5,0,0,0],[0,0.85,0,0,0],[0,1,0,0,0],[0.25,0,0,0,0],[0.25,1,0,0,0],[0.5,0,0,0,0],[0.5,1,0,0,0],[0.75,0,0,0,0],[0.75,1,0,0,0],[1,0,0,0,0],[1,0.25,0,0,0],[1,0.5,0,0,0],[1,0.75,0,0,0],[1,1,0,0,0]];container=0;" vertex="1" parent="1">
          <mxGeometry x="590" y="350" width="100" height="40" as="geometry" />
        </mxCell>
        <mxCell id="L2oNHf1VwfuHhcc7JdmU-2" value="" style="endArrow=classic;html=1;rounded=0;labelBackgroundColor=#eaf3e9;fontFamily=Times New Roman;" edge="1" parent="1" source="uibHqKtkNB9VnTDQrDVG-6" target="O8uKvjE5hNxJf-8HaGL2-6">
          <mxGeometry width="50" height="50" relative="1" as="geometry">
            <mxPoint x="240" y="350" as="sourcePoint" />
            <mxPoint x="240" y="380" as="targetPoint" />
          </mxGeometry>
        </mxCell>
        <mxCell id="L2oNHf1VwfuHhcc7JdmU-3" value="" style="endArrow=classic;html=1;rounded=0;labelBackgroundColor=#eaf3e9;fontFamily=Times New Roman;" edge="1" parent="1" source="uibHqKtkNB9VnTDQrDVG-18" target="L2oNHf1VwfuHhcc7JdmU-1">
          <mxGeometry width="50" height="50" relative="1" as="geometry">
            <mxPoint x="477" y="350" as="sourcePoint" />
            <mxPoint x="482" y="380" as="targetPoint" />
          </mxGeometry>
        </mxCell>
      </root>
    </mxGraphModel>
  </diagram>
</mxfile>
